<svg viewBox="0 0 24 24" fill="none" xmlns="http://www.w3.org/2000/svg">
  <path d="M16.5 9.375H14.8773C14.1749 9.375 13.8238 9.375 13.5168 9.26491C13.2455 9.16759 13.0003 9.00902 12.8002 8.80153C12.5738 8.5668 12.4297 8.24656 12.1415 7.60609L12.046 7.39391C11.7578 6.75343 11.6137 6.4332 11.3873 6.19847C11.1872 5.99098 10.942 5.83241 10.6707 5.73509C10.3637 5.625 10.0126 5.625 9.31024 5.625H8.4375C7.91497 5.625 7.65371 5.625 7.43481 5.65747C6.12769 5.85136 5.10136 6.87769 4.90747 8.18481C4.875 8.40371 4.875 8.66497 4.875 9.1875V13.575C4.875 15.2552 4.875 16.0952 5.20198 16.737C5.4896 17.3015 5.94854 17.7604 6.51303 18.048C7.15476 18.375 7.99484 18.375 9.675 18.375H14.325C16.0052 18.375 16.8452 18.375 17.487 18.048C18.0515 17.7604 18.5104 17.3015 18.798 16.737C19.125 16.0952 19.125 15.2552 19.125 13.575V12.375V11.0625C19.125 9.48838 19.125 8.70133 18.837 8.09233C18.5402 7.46491 18.0351 6.95978 17.4077 6.66303C16.7987 6.375 16.0116 6.375 14.4375 6.375" stroke="currentColor" stroke-width="1.2" stroke-linecap="round"/>
</svg>
